<svg id="deaddrop-logo" xmlns="http://www.w3.org/2000/svg" viewBox="0 0 512 512" width="350" height="350">
  <rect width="512" height="512" rx="60" fill="#110818"/>

  <rect x="30" y="50" width="452" height="412" rx="12" fill="none" stroke="#00ff66" stroke-width="6"/>
  <line x1="30" y1="110" x2="482" y2="110" stroke="#00ff66" stroke-width="6"/>

  <polyline points="50,70 65,80 50,90" fill="none" stroke="#00ff66" stroke-width="4" stroke-linecap="square"/>
  <line x1="75" y1="90" x2="90" y2="90" stroke="#00ff66" stroke-width="4"/>

  <path d="M450 60 C 450 60, 462 74, 462 84 A 12 12 0 0 1 438 84 C 438 74, 450 60, 450 60 Z" fill="none" stroke="#7D4698" stroke-width="3" stroke-linejoin="round"/>
  <path d="M450 68 C 450 68, 456 78, 456 84 A 6 6 0 0 1 444 84 C 444 78, 450 68, 450 68 Z" fill="none" stroke="#7D4698" stroke-width="2" stroke-linejoin="round"/>
  <circle cx="450" cy="84" r="1.5" fill="#7D4698"/>

  <text x="50" y="160" font-family="monospace" font-size="18" fill="#00ff66">root@stb:~# systemctl start tor</text>
  <text x="50" y="195" font-family="monospace" font-size="18" fill="#7D4698">[notice] Tor daemon active.</text>
  <text x="50" y="230" font-family="monospace" font-size="18" fill="#7D4698">[notice] Bootstrapped 100% (done)</text>
  
  <text x="50" y="275" font-family="monospace" font-size="18" fill="#00ff66">root@stb:~# cat hs/hostname</text>
  <text x="50" y="310" font-family="monospace" font-size="20" fill="#7D4698" font-weight="bold">deaddrop7v...onion</text>
  
  <text x="50" y="355" font-family="monospace" font-size="18" fill="#00ff66">root@stb:~# ./worker.php</text>
  <text x="50" y="390" font-family="monospace" font-size="18" fill="#7D4698">[+] Radar online. Node synced.</text>
  
  <text x="50" y="435" font-family="monospace" font-size="18" fill="#00ff66">root@stb:~#</text>
  <rect x="185" y="420" width="10" height="18" fill="#00ff66"/>

</svg>